<?xml version="1.0" encoding="utf-8"?>
<!-- Generator: Adobe Illustrator 22.0.1, SVG Export Plug-In . SVG Version: 6.00 Build 0)  -->
<svg version="1.1" id="Layer_1" xmlns="http://www.w3.org/2000/svg" xmlns:xlink="http://www.w3.org/1999/xlink" x="0px" y="0px"
	 viewBox="0 0 389 119" style="enable-background:new 0 0 389 119;" xml:space="preserve">
<style type="text/css">
	.st0{fill:#FEFEFE;}
</style>
<g id="Layer_x0020_1">
	<path class="st0" d="M218,16.2h-10.2v-5h5.3V9.9h-5.3V5.3h9.8V4.1h-11v13.3H218V16.2z M384.3,113.6V100h-1.2v13.6H384.3z
		 M384.3,82.9V78h-24V59h19.9v-4.1h-19.9V39.1h24V35h-35.7v47.9H384.3z M384.3,12.6v-4H228.3v4H384.3z M200.1,4h-1.2v5.8h-9.4V4
		h-1.2v13.4h1.2V11h9.4v6.3h1.2V4z M182.8,4h-11.4v1.2h5.1v12.2h1.2V5.2h5V4z M159.8,8.7H5v4h154.8V8.7z M285.9,69.8
		c0-1.4-0.2-2.6-0.6-3.7c-0.4-1.2-1-2.2-1.9-3c-0.9-0.9-2.1-1.5-3.5-2c-1.4-0.5-3.2-0.7-5.3-0.7h-3.3v-4.7h5c1.2,0,2.4-0.2,3.3-0.6
		c1-0.4,1.8-0.9,2.4-1.7c0.6-0.7,1.2-1.5,1.5-2.4s0.5-2,0.5-3.2c0-1.2-0.2-2.4-0.6-3.4s-1.2-1.9-2-2.7c-0.9-0.7-2.1-1.3-3.5-1.7
		c-1.4-0.4-3.1-0.6-5-0.6h-4.4v16.3l0,0v4.7l0,0v17.6h6.5c1.9,0,3.5-0.2,4.9-0.6c1.4-0.4,2.5-1,3.5-1.7c0.9-0.7,1.6-1.6,2-2.6
		S285.9,70.9,285.9,69.8L285.9,69.8z M293.3,79c-1.6,1.2-3.5,2.2-5.7,2.8c-2.2,0.7-4.7,1-7.4,1h-23.5V34.9h20.5
		c2.7,0,5.3,0.3,7.6,0.9s4.2,1.4,5.9,2.5c1.7,1.1,3,2.4,3.8,3.9c0.9,1.5,1.4,3.2,1.4,5c0,1.2-0.1,2.2-0.4,3.2
		c-0.2,0.9-0.6,1.9-1.2,2.7c-0.6,0.9-1.3,1.7-2.2,2.4s-2.1,1.6-3.5,2.4c1.4,0.4,2.7,1,3.9,1.8c1.2,0.7,2.2,1.7,3,2.7
		c0.9,1,1.5,2.1,2,3.3c0.5,1.2,0.7,2.5,0.7,3.8c0,1.9-0.4,3.7-1.3,5.3C296.1,76.4,294.9,77.8,293.3,79L293.3,79z M213,69.8
		c0-1.4-0.2-2.6-0.6-3.7s-1-2.2-1.9-3c-0.9-0.9-2.1-1.5-3.5-2s-3.2-0.7-5.3-0.7h-3.3v-4.7h5c1.2,0,2.4-0.2,3.3-0.6
		c1-0.4,1.8-0.9,2.4-1.7s1.2-1.5,1.5-2.4c0.4-0.9,0.5-2,0.5-3.2c0-1.2-0.2-2.4-0.6-3.4c-0.4-1-1.2-1.9-2-2.7
		c-0.9-0.7-2.1-1.3-3.5-1.7s-3.1-0.6-5-0.6h-4.4v16.3l0,0v4.7l0,0v17.6h6.5c1.9,0,3.5-0.2,4.9-0.6c1.4-0.4,2.5-1,3.5-1.7
		c0.9-0.7,1.6-1.6,2-2.6C212.7,72,212.9,70.9,213,69.8L213,69.8z M220.4,79c-1.6,1.2-3.5,2.2-5.7,2.8c-2.2,0.7-4.7,1-7.4,1h-23.5
		V34.9h20.5c2.7,0,5.3,0.3,7.6,0.9s4.2,1.4,5.9,2.5c1.7,1.1,3,2.4,3.8,3.9c0.9,1.5,1.4,3.2,1.4,5c0,1.2-0.1,2.2-0.4,3.2
		c-0.2,0.9-0.6,1.9-1.2,2.7c-0.6,0.9-1.3,1.7-2.2,2.4s-2.1,1.6-3.5,2.4c1.4,0.4,2.7,1,3.9,1.8c1.2,0.7,2.2,1.7,3,2.7
		c0.9,1,1.5,2.1,2,3.3c0.5,1.2,0.7,2.5,0.7,3.8c0,1.9-0.4,3.7-1.3,5.3C223.2,76.4,221.9,77.8,220.4,79L220.4,79z M306.7,35v47.9
		h36.1V78h-24.4V35H306.7z M234,82.9h11.7V35H234V82.9z M34.4,69.3c0-1.4-0.2-2.6-0.6-3.7s-1-2.2-1.9-3c-0.9-0.9-2.1-1.5-3.5-2
		c-1.4-0.5-3.2-0.7-5.3-0.7h-3.3v-4.7h5c1.2,0,2.4-0.2,3.3-0.6c1-0.4,1.8-0.9,2.4-1.7s1.2-1.5,1.5-2.4c0.4-0.9,0.5-2,0.5-3.2
		c0-1.2-0.2-2.4-0.6-3.4c-0.4-1-1.2-1.9-2-2.7c-0.9-0.7-2.1-1.3-3.5-1.7s-3.1-0.6-5-0.6h-4.4v16.3l0,0v4.7l0,0v17.6h6.5
		c1.9,0,3.5-0.2,4.9-0.6c1.4-0.4,2.5-1,3.5-1.7c0.9-0.7,1.6-1.6,2-2.6S34.3,70.4,34.4,69.3L34.4,69.3z M41.8,78.5
		c-1.6,1.2-3.5,2.2-5.7,2.8c-2.2,0.7-4.7,1-7.4,1H5.2V34.4h20.5c2.7,0,5.3,0.3,7.6,0.9s4.2,1.4,5.9,2.5s3,2.4,3.8,3.9
		c0.9,1.5,1.4,3.2,1.4,5c0,1.2-0.1,2.2-0.4,3.2c-0.2,0.9-0.6,1.9-1.2,2.7c-0.6,0.9-1.3,1.7-2.2,2.4s-2.1,1.6-3.5,2.4
		c1.4,0.4,2.7,1,3.9,1.8c1.2,0.7,2.2,1.7,3,2.7c0.9,1,1.5,2.1,2,3.3c0.5,1.2,0.7,2.4,0.7,3.8c0,1.9-0.4,3.7-1.3,5.3
		C44.5,75.9,43.3,77.3,41.8,78.5L41.8,78.5z M152.4,35.1h-11.7V83h11.7V35.1z M134.7,78.1h-24.4v-43H98.5V83h36.1V78.1z M74.2,40.8
		l-6.1,12.7l5.5,12H62.3l-2.2,4.5h15.3l6,13.1h12L74.1,40.9L74.2,40.8z M46.1,83h4.6l16.6-34.7l5.3-11L71.2,34h-1.6L46.1,83L46.1,83
		z M369.4,100h-1.2v13.6h10.2v-1.2h-8.9V100z M359.7,107.5l-2.9-6l-2.9,6H359.7L359.7,107.5z M357.4,100l6.6,13.6h-1.4l-2.4-4.9h-7
		l-2.4,4.9h-1.4l6.7-13.6h1.3H357.4z M344.5,109.8c0-0.9-0.3-1.5-0.9-1.9c-0.6-0.4-1.4-0.6-2.3-0.6h-6.8v5.1h6.8
		c0.6,0,1-0.1,1.4-0.1c0.4-0.1,0.7-0.3,1-0.5C344.2,111.2,344.4,110.5,344.5,109.8L344.5,109.8z M334.5,106h6.8
		c0.5,0,0.9-0.1,1.3-0.3c0.4-0.2,0.7-0.4,0.9-0.8c0.2-0.4,0.4-0.8,0.4-1.3c0-0.5-0.1-0.9-0.4-1.3c-0.2-0.4-0.5-0.6-0.9-0.8
		c-0.4-0.2-0.9-0.3-1.4-0.3h-6.8L334.5,106L334.5,106z M345.2,107.9c0.4,0.6,0.5,1.2,0.5,1.9c0,0.6-0.1,1.2-0.4,1.7
		c-0.2,0.5-0.6,0.9-1.1,1.3c-0.3,0.2-0.6,0.4-0.9,0.5c-0.3,0.1-0.6,0.2-0.9,0.2c-0.3,0-0.7,0.1-1.2,0.1h-8V100h8
		c0.7,0,1.4,0.1,1.9,0.4s1.1,0.7,1.4,1.3c0.4,0.6,0.5,1.2,0.5,1.9c0,0.6-0.1,1.1-0.4,1.5s-0.6,0.9-1,1.3c0.6,0.4,1.2,0.9,1.5,1.4
		V107.9z M318.5,106.8c0-0.9-0.1-1.7-0.5-2.4c-0.3-0.7-0.7-1.4-1.3-1.9c-0.6-0.5-1.2-0.9-1.9-1.2c-0.7-0.3-1.5-0.4-2.4-0.4
		c-1.1,0-2.1,0.2-3,0.7c-0.9,0.5-1.7,1.2-2.2,2.1c-0.6,0.9-0.9,1.9-0.9,3c0,1.2,0.3,2.2,0.8,3.1c0.5,0.9,1.3,1.6,2.2,2.1
		c0.9,0.5,1.9,0.7,3.1,0.7c0.9,0,1.6-0.1,2.4-0.4c0.7-0.3,1.4-0.6,1.9-1.2c0.6-0.5,1-1.2,1.3-1.9
		C318.3,108.3,318.5,107.5,318.5,106.8L318.5,106.8z M318.8,103.1c0.6,1.1,1,2.3,1,3.7c0,1-0.2,1.9-0.6,2.8s-0.9,1.7-1.6,2.3
		c-0.6,0.6-1.4,1.2-2.3,1.5c-0.9,0.4-1.8,0.5-2.8,0.5c-1.4,0-2.6-0.3-3.7-0.9c-1.2-0.6-2-1.4-2.7-2.6c-0.6-1.1-1-2.3-1-3.7
		c0-1,0.2-1.9,0.6-2.8c0.4-0.9,0.9-1.7,1.6-2.2c0.6-0.6,1.4-1.2,2.3-1.5c0.9-0.4,1.8-0.5,2.8-0.5c1.4,0,2.6,0.3,3.7,0.9
		C317.4,101.2,318.3,102,318.8,103.1L318.8,103.1z M289.5,101.2h5.3v12.4h1.2v-12.4h5.2V100h-11.6L289.5,101.2L289.5,101.2z
		 M266.7,107.2h5.5v-1.2h-5.5v-4.7h10V100h-11.2v13.6h11.7v-1.2h-10.4V107.2z M258.6,106.8c0-0.9-0.1-1.7-0.4-2.4
		c-0.3-0.7-0.6-1.3-1.1-1.7c-0.5-0.5-1-0.8-1.7-1.1c-0.6-0.2-1.4-0.4-2.2-0.4h-5.2v11.2h5.2c1,0,1.9-0.2,2.7-0.6
		c0.8-0.4,1.4-1.1,1.9-1.9C258.5,109,258.7,108,258.6,106.8L258.6,106.8z M259.4,104c0.3,0.9,0.5,1.8,0.5,2.8s-0.1,1.9-0.5,2.8
		c-0.4,0.9-0.8,1.6-1.4,2.2c-0.6,0.6-1.3,1.1-2.1,1.4c-0.8,0.4-1.7,0.5-2.6,0.5h-6.5v-13.6h6.5c1,0,1.9,0.1,2.7,0.5
		c0.8,0.3,1.5,0.8,2.1,1.4s1,1.3,1.3,2.2V104z M239.2,113.6h1.2V100h-1.2V113.6z M230.9,108.7c0,0.5-0.1,0.9-0.1,1.3
		c-0.1,0.4-0.2,0.6-0.4,1c-0.4,0.6-1,1-1.8,1.3s-1.6,0.4-2.4,0.4c-0.9,0-1.8-0.1-2.5-0.4c-0.7-0.3-1.3-0.7-1.7-1.3
		c-0.4-0.6-0.6-1.4-0.6-2.3v-8.7h-1.2v8.7c0,1.2,0.3,2.2,0.8,3c0.5,0.8,1.2,1.4,2.1,1.7c0.9,0.4,1.9,0.6,3,0.6h0.1h0.1
		c0.9,0,1.7-0.1,2.4-0.3c0.7-0.2,1.4-0.5,1.9-0.9s1-0.9,1.3-1.7c0.3-0.6,0.4-1.4,0.4-2.4v-8.7H231L230.9,108.7L230.9,108.7z
		 M208.1,107.6h4.9v2.4c0,0.6-0.3,1.2-0.9,1.6c-0.6,0.4-1.3,0.7-2.1,0.9c-0.6,0.1-1.2,0.2-1.8,0.2c-1.2,0-2.2-0.2-3.2-0.7
		c-0.9-0.5-1.7-1.2-2.3-2s-0.9-1.9-0.9-3.1c0-1,0.3-2,0.9-3c0.6-0.9,1.3-1.7,2.3-2.2c1-0.5,2.1-0.8,3.3-0.8c1.1,0,1.9,0.2,2.7,0.6
		c0.8,0.4,1.5,0.9,2.1,1.6l0.8-0.9c-1.4-1.7-3.3-2.4-5.7-2.4c-1.4,0-2.7,0.3-3.9,0.9c-1.2,0.6-2.1,1.4-2.8,2.5c-0.7,1.1-1,2.3-1,3.7
		c0,1,0.2,2,0.6,2.9c0.4,0.9,0.9,1.7,1.7,2.3c0.7,0.6,1.5,1.2,2.4,1.4c0.9,0.4,1.9,0.5,2.9,0.5h0.1h0.1c0.8,0,1.5-0.1,2.2-0.3
		c1-0.3,1.9-0.7,2.7-1.4c0.8-0.6,1.2-1.4,1.2-2.4v-3.6H208L208.1,107.6L208.1,107.6z M177.7,107.2h5.5V106h-5.5v-4.7h10V100h-11.2
		v13.6h11.7v-1.2h-10.4V107.2z M159.8,101.3h5.3v12.4h1.2v-12.4h5.2V100h-11.6L159.8,101.3L159.8,101.3z M152.5,107.5l-2.9-6l-2.9,6
		H152.5L152.5,107.5z M150.2,100l6.6,13.6h-1.4l-2.4-4.9h-7l-2.4,4.9h-1.4l6.7-13.6h1.3H150.2z M131,109.2l-5.5-9.3h-1.2v13.6h1.2
		v-11.2l5.5,9.3l5.5-9.3v11.2h1.2V100h-1.2L131,109.2L131,109.2z M116.1,113.6h1.2V100h-1.2V113.6z M99,101.2h5.3v12.4h1.2v-12.4
		h5.2V100H99.1L99,101.2L99,101.2z M86.9,100h-1.2v13.6h10.2v-1.2h-8.9V100z M77.9,108.7c0,0.5,0,0.9-0.1,1.3
		c-0.1,0.4-0.2,0.6-0.4,1c-0.4,0.6-1,1-1.8,1.3c-0.8,0.3-1.6,0.4-2.4,0.4c-0.9,0-1.8-0.1-2.5-0.4c-0.7-0.3-1.3-0.7-1.7-1.3
		c-0.4-0.6-0.6-1.4-0.6-2.3V100h-1.2v8.7c0,1.2,0.3,2.2,0.8,3c0.5,0.8,1.2,1.4,2.1,1.7c0.9,0.4,1.9,0.6,3,0.6H73h0.1
		c0.9,0,1.7-0.1,2.4-0.3c0.7-0.2,1.4-0.5,1.9-0.9s1-0.9,1.3-1.7c0.3-0.6,0.4-1.4,0.4-2.4V100h-1.2L77.9,108.7L77.9,108.7z
		 M42.7,107.2h5.5v-1.2h-5.5v-4.7h10V100H41.4v13.6h11.7v-1.2H42.7V107.2z M33.2,105.9h-9.5V100h-1.2v13.6h1.2v-6.5h9.5v6.5h1.2V100
		h-1.2V105.9z M5,100h11.6v1.2h-5.2v12.4h-1.2v-12.4H4.9L5,100L5,100z"/>
</g>
</svg>
