<?xml version="1.0" encoding="utf-8"?>
<!-- Generator: Adobe Illustrator 22.1.0, SVG Export Plug-In . SVG Version: 6.00 Build 0)  -->
<svg version="1.1" id="Layer_1" xmlns="http://www.w3.org/2000/svg" xmlns:xlink="http://www.w3.org/1999/xlink" x="0px" y="0px"
	 viewBox="0 0 379.3 110" style="enable-background:new 0 0 379.3 110;" xml:space="preserve">
<style type="text/css">
	.st0{fill:#384044;}
	.st1{fill:none;}
</style>
<path class="st0" d="M11.6,97.2H6.5v12.4H5.2V97.2H0V96h11.6V97.2z M29.4,109.6h-1.2v-6.5h-9.5v6.5h-1.2V96h1.2v5.9h9.5V96h1.2
	V109.6z M48.1,109.6H36.4V96h11.2v1.3h-10v4.7h5.5v1.2h-5.5v5.2h10.5V109.6z M74.1,104.7c0,0.9-0.2,1.7-0.5,2.4
	c-0.3,0.7-0.7,1.2-1.3,1.6c-0.6,0.4-1.2,0.7-2,0.9c-0.7,0.2-1.6,0.3-2.4,0.3c-1.2,0-2.2-0.2-3.1-0.6c-0.9-0.4-1.6-1-2.1-1.7
	c-0.5-0.8-0.8-1.8-0.8-2.9V96h1.2v8.7c0,1,0.2,1.7,0.6,2.3c0.4,0.6,1,1,1.7,1.3c0.7,0.3,1.5,0.4,2.5,0.4c0.8,0,1.7-0.1,2.4-0.4
	s1.4-0.7,1.8-1.3c0.2-0.3,0.4-0.7,0.5-1c0.1-0.3,0.1-0.8,0.1-1.3V96h1.2V104.7z M90.8,109.6H80.6V96h1.2v12.4h8.9V109.6z
	 M105.7,97.2h-5.2v12.4h-1.2V97.2h-5.2V96h11.6V97.2z M112.3,109.6h-1.2V96h1.2V109.6z M132.8,109.6h-1.2V98.4l-5.5,9.3l-5.5-9.3
	v11.2h-1.2V96h1.2l5.5,9.3l5.6-9.3h1.2V109.6z M151.9,109.6h-1.4l-2.4-4.9h-7l-2.4,4.9h-1.4L144,96h1.3L151.9,109.6z M147.5,103.5
	l-2.9-6l-2.9,6H147.5z M166.4,97.2h-5.2v12.4H160V97.2h-5.2V96h11.6V97.2z M183.1,109.6h-11.7V96h11.2v1.3h-10v4.7h5.5v1.2h-5.5v5.2
	h10.5V109.6z M209.3,106c0,0.9-0.4,1.7-1.1,2.4c-0.8,0.6-1.7,1.1-2.7,1.4c-0.7,0.2-1.5,0.3-2.3,0.3c-1,0-2-0.2-2.9-0.5
	c-0.9-0.3-1.7-0.8-2.4-1.5c-0.7-0.6-1.2-1.4-1.6-2.3c-0.4-0.9-0.6-1.8-0.6-2.9c0-1.4,0.3-2.6,1-3.7c0.7-1.1,1.6-1.9,2.8-2.5
	c1.2-0.6,2.5-0.9,3.9-0.9c2.3,0,4.2,0.8,5.7,2.5l-0.8,0.9c-0.6-0.7-1.3-1.2-2.1-1.6c-0.8-0.4-1.7-0.5-2.7-0.5
	c-1.2,0-2.3,0.3-3.3,0.8s-1.8,1.2-2.3,2.2c-0.6,0.9-0.8,1.9-0.8,2.9c0,1.2,0.3,2.2,0.9,3.1c0.6,0.9,1.3,1.6,2.3,2
	c1,0.5,2,0.7,3.2,0.7c0.6,0,1.2-0.1,1.8-0.2c0.7-0.2,1.4-0.5,2.1-0.9c0.6-0.4,0.9-1,0.9-1.6v-2.4h-4.9v-1.2h6.2V106z M227.2,104.7
	c0,0.9-0.2,1.7-0.5,2.4c-0.3,0.7-0.7,1.2-1.3,1.6s-1.2,0.7-2,0.9c-0.7,0.2-1.6,0.3-2.4,0.3c-1.2,0-2.2-0.2-3.1-0.6
	c-0.9-0.4-1.6-1-2.1-1.7c-0.5-0.8-0.8-1.8-0.8-2.9V96h1.2v8.7c0,1,0.2,1.7,0.6,2.3c0.4,0.6,1,1,1.7,1.3c0.7,0.3,1.5,0.4,2.5,0.4
	c0.8,0,1.7-0.1,2.4-0.4c0.8-0.3,1.4-0.7,1.8-1.3c0.2-0.3,0.4-0.7,0.5-1c0.1-0.3,0.1-0.8,0.1-1.3V96h1.2V104.7z M235.4,109.6h-1.2V96
	h1.2V109.6z M254.9,102.8c0,1-0.2,1.9-0.5,2.8s-0.8,1.6-1.4,2.2c-0.6,0.6-1.3,1.1-2.1,1.4c-0.8,0.3-1.7,0.5-2.6,0.5h-6.5V96h6.5
	c1,0,1.9,0.2,2.7,0.5c0.8,0.3,1.5,0.8,2.1,1.4c0.6,0.6,1,1.3,1.3,2.2C254.7,100.8,254.9,101.8,254.9,102.8z M253.6,102.8
	c0-0.9-0.1-1.7-0.4-2.4c-0.3-0.7-0.6-1.3-1.1-1.8c-0.5-0.5-1-0.8-1.7-1.1c-0.7-0.2-1.4-0.4-2.1-0.4h-5.2v11.2h5.2
	c1,0,1.9-0.2,2.7-0.6s1.5-1.1,1.9-1.9C253.4,105,253.6,104,253.6,102.8z M272.1,109.6h-11.7V96h11.2v1.3h-10v4.7h5.5v1.2h-5.5v5.2
	h10.5V109.6z M296,97.2h-5.2v12.4h-1.2V97.2h-5.2V96H296V97.2z M314.7,102.8c0,1-0.2,1.9-0.6,2.8c-0.4,0.9-0.9,1.6-1.6,2.3
	c-0.7,0.7-1.5,1.2-2.3,1.5c-0.9,0.3-1.8,0.5-2.8,0.5c-1.3,0-2.6-0.3-3.7-0.9c-1.1-0.6-2-1.5-2.7-2.6c-0.7-1.1-1-2.3-1-3.7
	c0-1,0.2-1.9,0.6-2.8c0.4-0.9,0.9-1.6,1.6-2.3c0.7-0.6,1.5-1.1,2.3-1.5c0.9-0.3,1.8-0.5,2.8-0.5c1.3,0,2.6,0.3,3.7,0.9
	c1.1,0.6,2,1.5,2.7,2.5C314.4,100.3,314.7,101.5,314.7,102.8z M313.5,102.9c0-0.8-0.2-1.6-0.5-2.4c-0.3-0.7-0.7-1.4-1.3-1.9
	c-0.6-0.5-1.2-0.9-1.9-1.2c-0.7-0.3-1.5-0.4-2.4-0.4c-1.1,0-2.1,0.2-3,0.7c-0.9,0.5-1.7,1.2-2.3,2.1c-0.6,0.9-0.8,1.9-0.8,3
	c0,1.1,0.3,2.2,0.8,3.1c0.5,0.9,1.3,1.6,2.2,2.1c0.9,0.5,2,0.8,3.1,0.8c0.8,0,1.6-0.1,2.4-0.4c0.7-0.3,1.4-0.7,2-1.2
	c0.6-0.5,1-1.1,1.3-1.9C313.3,104.5,313.5,103.7,313.5,102.9z M340.6,105.8c0,0.6-0.1,1.1-0.4,1.6c-0.2,0.5-0.6,1-1.1,1.3
	c-0.3,0.2-0.6,0.4-0.9,0.5c-0.3,0.1-0.6,0.2-0.9,0.2c-0.3,0-0.7,0.1-1.1,0.1h-8V96h8c0.7,0,1.4,0.2,1.9,0.5c0.6,0.3,1,0.7,1.4,1.3
	c0.3,0.6,0.5,1.2,0.5,1.9c0,0.6-0.1,1.1-0.3,1.5s-0.6,0.9-1,1.3c0.6,0.4,1.1,0.8,1.5,1.4C340.5,104.5,340.6,105.1,340.6,105.8z
	 M338.8,99.7c0-0.5-0.1-0.9-0.3-1.3c-0.2-0.4-0.5-0.6-0.9-0.8s-0.8-0.3-1.3-0.3h-6.8v4.7h6.8c0.5,0,0.9-0.1,1.3-0.3
	c0.4-0.2,0.7-0.5,0.9-0.8C338.7,100.6,338.8,100.1,338.8,99.7z M339.4,105.8c0-0.9-0.3-1.5-0.9-1.9c-0.6-0.4-1.4-0.6-2.3-0.6h-6.8
	v5.1h6.8c0.6,0,1,0,1.4-0.1c0.4-0.1,0.7-0.3,1-0.5C339.1,107.2,339.4,106.6,339.4,105.8z M358.8,109.6h-1.4l-2.4-4.9h-7l-2.4,4.9
	h-1.4L351,96h1.3L358.8,109.6z M354.5,103.5l-2.9-6l-2.9,6H354.5z M373.1,109.6H363V96h1.2v12.4h8.9V109.6z M379.3,109.6h-1.2V96
	h1.2V109.6z M67.4,33.2L66,30h-1.6L41,78.9h4.6h0l16.6-34.7L67.4,33.2z M69,36.7l-6.1,12.7l5.5,11.9H57.2l-2.1,4.5h15.3l6,13.1h12
	L69,36.7z M93.4,31.1h11.8v43h24.4v4.9H93.4V31.1z M135.5,31.1h11.7v47.9h-11.7V31.1z M40.9,61.7c-0.5-1.2-1.2-2.3-2-3.3
	c-0.9-1-1.9-1.9-3.1-2.6C34.7,55,33.4,54.4,32,54c1.4-0.8,2.5-1.6,3.5-2.4c0.9-0.8,1.7-1.6,2.3-2.4c0.6-0.8,1-1.7,1.2-2.7
	c0.2-1,0.4-2,0.4-3.1c0-1.8-0.5-3.5-1.4-5c-0.9-1.5-2.2-2.8-3.8-3.9c-1.6-1.1-3.6-1.9-5.9-2.5c-2.3-0.6-4.8-0.9-7.6-0.9H0v47.9h23.6
	c2.7,0,5.2-0.3,7.4-1c2.2-0.7,4.1-1.6,5.7-2.8c1.6-1.2,2.8-2.6,3.7-4.3c0.9-1.6,1.3-3.4,1.3-5.3C41.6,64.2,41.4,62.9,40.9,61.7z
	 M28.6,69.1c-0.4,1-1.1,1.9-2,2.6c-0.9,0.7-2.1,1.3-3.4,1.7c-1.4,0.4-3,0.6-4.9,0.6h-6.5V56.4h0v-4.6h0V35.5h4.4
	c1.9,0,3.6,0.2,5,0.6c1.4,0.4,2.6,1,3.5,1.7c0.9,0.7,1.6,1.6,2,2.7c0.4,1,0.7,2.2,0.7,3.4c0,1.1-0.2,2.2-0.5,3.1
	c-0.4,1-0.9,1.8-1.5,2.5c-0.7,0.7-1.5,1.2-2.5,1.6c-1,0.4-2.1,0.6-3.3,0.6h-5v4.6h3.3c2.1,0,3.9,0.2,5.4,0.7c1.5,0.5,2.6,1.1,3.5,2
	c0.9,0.8,1.6,1.8,1.9,3c0.4,1.1,0.6,2.4,0.6,3.7C29.3,67,29.1,68.1,28.6,69.1z M228.9,31.1h11.7v47.9h-11.7V31.1z M301.7,31.1h11.8
	v43h24.4v4.9h-36.2V31.1z M379.3,31.1v4.1h-24v15.8h19.9V55h-19.9v19h24v4.9h-35.7V31.1H379.3z M219.6,61.7c-0.5-1.2-1.2-2.3-2-3.3
	c-0.9-1-1.9-1.9-3.1-2.6c-1.2-0.8-2.5-1.3-3.9-1.8c1.4-0.8,2.5-1.6,3.5-2.4c0.9-0.8,1.7-1.6,2.3-2.4c0.6-0.8,1-1.7,1.2-2.7
	c0.2-1,0.4-2,0.4-3.1c0-1.8-0.5-3.5-1.4-5c-0.9-1.5-2.2-2.8-3.8-3.9c-1.6-1.1-3.6-1.9-5.9-2.5c-2.3-0.6-4.8-0.9-7.6-0.9h-20.6v47.9
	h23.6c2.7,0,5.2-0.3,7.4-1c2.2-0.7,4.1-1.6,5.7-2.8c1.6-1.2,2.8-2.6,3.7-4.3c0.9-1.6,1.3-3.4,1.3-5.3
	C220.3,64.2,220.1,62.9,219.6,61.7z M207.3,69.1c-0.4,1-1.1,1.9-2,2.6c-0.9,0.7-2.1,1.3-3.4,1.7c-1.4,0.4-3,0.6-4.9,0.6h-6.5V56.4h0
	v-4.6h0V35.5h4.4c1.9,0,3.6,0.2,5,0.6c1.4,0.4,2.6,1,3.5,1.7c0.9,0.7,1.6,1.6,2,2.7c0.4,1,0.7,2.2,0.7,3.4c0,1.1-0.2,2.2-0.5,3.1
	c-0.4,1-0.9,1.8-1.5,2.5c-0.7,0.7-1.5,1.2-2.5,1.6c-1,0.4-2.1,0.6-3.3,0.6h-5v4.6h3.3c2.1,0,3.9,0.2,5.4,0.7c1.5,0.5,2.6,1.1,3.5,2
	c0.9,0.8,1.6,1.8,1.9,3c0.4,1.1,0.6,2.4,0.6,3.7C208,67,207.7,68.1,207.3,69.1z M292.5,61.7c-0.5-1.2-1.2-2.3-2-3.3
	c-0.9-1-1.9-1.9-3.1-2.6c-1.2-0.8-2.5-1.3-3.9-1.8c1.4-0.8,2.5-1.6,3.5-2.4c0.9-0.8,1.7-1.6,2.3-2.4c0.6-0.8,1-1.7,1.2-2.7
	c0.2-1,0.4-2,0.4-3.1c0-1.8-0.5-3.5-1.4-5c-0.9-1.5-2.2-2.8-3.8-3.9c-1.6-1.1-3.6-1.9-5.9-2.5c-2.3-0.6-4.8-0.9-7.6-0.9h-20.6v47.9
	h23.6c2.7,0,5.2-0.3,7.4-1c2.2-0.7,4.1-1.6,5.7-2.8c1.6-1.2,2.8-2.6,3.7-4.3c0.9-1.6,1.3-3.4,1.3-5.3
	C293.3,64.2,293,62.9,292.5,61.7z M280.2,69.1c-0.4,1-1.1,1.9-2,2.6c-0.9,0.7-2.1,1.3-3.4,1.7c-1.4,0.4-3,0.6-4.9,0.6h-6.5V56.4h0
	v-4.6h0V35.5h4.4c1.9,0,3.6,0.2,5,0.6c1.4,0.4,2.6,1,3.5,1.7c0.9,0.7,1.6,1.6,2,2.7c0.4,1,0.7,2.2,0.7,3.4c0,1.1-0.2,2.2-0.5,3.1
	c-0.4,1-0.9,1.8-1.5,2.5c-0.7,0.7-1.5,1.2-2.5,1.6c-1,0.4-2.1,0.6-3.3,0.6h-5v4.6h3.3c2.1,0,3.9,0.2,5.4,0.7c1.5,0.5,2.6,1.1,3.5,2
	c0.9,0.8,1.6,1.8,1.9,3c0.4,1.1,0.6,2.4,0.6,3.7C280.9,67,280.7,68.1,280.2,69.1z M154.8,4.7H0v4h154.8V4.7z M223.3,4.7v4h156v-4
	H223.3z M177.7,1.2h-5v12.2h-1.2V1.2h-5.1V0h11.4V1.2z M195.1,13.4h-1.2V7h-9.3v6.4h-1.2V0h1.2v5.8h9.3V0h1.2V13.4z M213,13.4h-11.5
	V0h11v1.3h-9.8v4.6h5.4v1.2h-5.4v5.1H213V13.4z"/>
<g>
	<path class="st1" d="M-73.9,0v4.1h-24v15.8H-78V24h-19.9v19h24v4.9h-35.7V0H-73.9z"/>
	<path class="st1" d="M-157.5-35.7h4.1v24h15.8v-19.9h4.1v19.9h19v-24h4.9V0h-47.9V-35.7z"/>
	<path class="st1" d="M-524.7,109.7v-4.1h24V89.8h-19.9v-4.1h19.9v-19h-24v-4.9h35.7v47.9H-524.7z"/>
	<path class="st1" d="M-441.1,145.4h-4.1v-24H-461v19.9h-4.1v-19.9h-19v24h-4.9v-35.7h47.9V145.4z"/>
	<rect x="-489" y="0" class="st1" width="379.3" height="109.6"/>
	<rect x="-524.7" y="-35.7" class="st1" width="450.8" height="181.1"/>
</g>
</svg>
